<svg width="48" height="48" viewBox="0 0 48 48" fill="none" xmlns="http://www.w3.org/2000/svg">
<circle cx="24" cy="24" r="22" fill="#F2BE22" stroke="white" stroke-width="4"/>
<path d="M21.86 30C21.7229 29.9996 21.5873 29.971 21.4618 29.9159C21.3362 29.8609 21.2233 29.7806 21.13 29.68L16.27 24.51C16.0884 24.3164 15.991 24.0586 15.9995 23.7932C16.0079 23.5278 16.1214 23.2767 16.315 23.095C16.5086 22.9134 16.7665 22.816 17.0318 22.8245C17.2972 22.8329 17.5484 22.9464 17.73 23.14L21.85 27.53L30.26 18.33C30.3454 18.2238 30.4515 18.136 30.572 18.0723C30.6925 18.0085 30.8247 17.9701 30.9606 17.9593C31.0965 17.9485 31.2331 17.9656 31.3622 18.0096C31.4912 18.0535 31.6099 18.1234 31.7109 18.2149C31.8119 18.3064 31.8932 18.4175 31.9497 18.5416C32.0062 18.6656 32.0368 18.7999 32.0395 18.9362C32.0423 19.0724 32.0171 19.2078 31.9656 19.334C31.9141 19.4602 31.8373 19.5746 31.74 19.67L22.6 29.67C22.5077 29.7724 22.3951 29.8545 22.2695 29.9113C22.1439 29.9681 22.0079 29.9983 21.87 30H21.86Z" fill="white"/>
</svg>
