<svg width="18" height="18" viewBox="0 0 18 18" fill="none" xmlns="http://www.w3.org/2000/svg">
<g id="&#240;&#159;&#166;&#134; icon &#34;email&#34;">
<path id="Vector" d="M14.25 3H3.75C3.15326 3 2.58097 3.23705 2.15901 3.65901C1.73705 4.08097 1.5 4.65326 1.5 5.25V12.75C1.5 13.3467 1.73705 13.919 2.15901 14.341C2.58097 14.7629 3.15326 15 3.75 15H14.25C14.8467 15 15.419 14.7629 15.841 14.341C16.2629 13.919 16.5 13.3467 16.5 12.75V5.25C16.5 4.65326 16.2629 4.08097 15.841 3.65901C15.419 3.23705 14.8467 3 14.25 3ZM14.25 4.5L9.375 7.8525C9.26099 7.91833 9.13165 7.95298 9 7.95298C8.86835 7.95298 8.73901 7.91833 8.625 7.8525L3.75 4.5H14.25Z" fill="#231F20" fill-opacity="0.5"/>
</g>
</svg>
