<svg width="18" height="18" viewBox="0 0 18 18" fill="none" xmlns="http://www.w3.org/2000/svg">
<g id="&#240;&#159;&#166;&#134; icon &#34;lock outline&#34;">
<g id="Group">
<path id="Vector" d="M12.75 6.00002H12V4.58252C12 3.78687 11.6839 3.02381 11.1213 2.4612C10.5587 1.89859 9.79565 1.58252 9 1.58252C8.20435 1.58252 7.44129 1.89859 6.87868 2.4612C6.31607 3.02381 6 3.78687 6 4.58252V6.00002H5.25C4.65326 6.00002 4.08097 6.23707 3.65901 6.65903C3.23705 7.08099 3 7.65328 3 8.25002V14.25C3 14.8468 3.23705 15.4191 3.65901 15.841C4.08097 16.263 4.65326 16.5 5.25 16.5H12.75C13.3467 16.5 13.919 16.263 14.341 15.841C14.7629 15.4191 15 14.8468 15 14.25V8.25002C15 7.65328 14.7629 7.08099 14.341 6.65903C13.919 6.23707 13.3467 6.00002 12.75 6.00002ZM7.5 4.58252C7.48991 4.17399 7.64209 3.77811 7.92321 3.48152C8.20434 3.18493 8.59152 3.0118 9 3.00002C9.40848 3.0118 9.79566 3.18493 10.0768 3.48152C10.3579 3.77811 10.5101 4.17399 10.5 4.58252V6.00002H7.5V4.58252ZM13.5 14.25C13.5 14.4489 13.421 14.6397 13.2803 14.7803C13.1397 14.921 12.9489 15 12.75 15H5.25C5.05109 15 4.86032 14.921 4.71967 14.7803C4.57902 14.6397 4.5 14.4489 4.5 14.25V8.25002C4.5 8.05111 4.57902 7.86034 4.71967 7.71969C4.86032 7.57904 5.05109 7.50002 5.25 7.50002H12.75C12.9489 7.50002 13.1397 7.57904 13.2803 7.71969C13.421 7.86034 13.5 8.05111 13.5 8.25002V14.25Z" fill="#231F20" fill-opacity="0.5"/>
<path id="Vector_2" d="M9 9C8.55499 9 8.11998 9.13196 7.74997 9.37919C7.37996 9.62643 7.09157 9.97783 6.92127 10.389C6.75097 10.8001 6.70642 11.2525 6.79323 11.689C6.88005 12.1254 7.09434 12.5263 7.40901 12.841C7.72368 13.1557 8.12459 13.37 8.56105 13.4568C8.99751 13.5436 9.44991 13.499 9.86104 13.3287C10.2722 13.1584 10.6236 12.87 10.8708 12.5C11.118 12.13 11.25 11.695 11.25 11.25C11.25 10.6533 11.0129 10.081 10.591 9.65901C10.169 9.23705 9.59674 9 9 9ZM9 12C8.85167 12 8.70666 11.956 8.58332 11.8736C8.45999 11.7912 8.36386 11.6741 8.30709 11.537C8.25033 11.4 8.23547 11.2492 8.26441 11.1037C8.29335 10.9582 8.36478 10.8246 8.46967 10.7197C8.57456 10.6148 8.7082 10.5433 8.85368 10.5144C8.99917 10.4855 9.14997 10.5003 9.28701 10.5571C9.42406 10.6139 9.54119 10.71 9.6236 10.8333C9.70601 10.9567 9.75 11.1017 9.75 11.25C9.75 11.4489 9.67098 11.6397 9.53033 11.7803C9.38968 11.921 9.19891 12 9 12Z" fill="#231F20" fill-opacity="0.5"/>
</g>
</g>
</svg>
