<?xml version="1.0" encoding="utf-8"?>
<!-- Generator: Adobe Illustrator 27.5.0, SVG Export Plug-In . SVG Version: 6.00 Build 0)  -->
<svg version="1.1" xmlns="http://www.w3.org/2000/svg" xmlns:xlink="http://www.w3.org/1999/xlink" x="0px" y="0px"
	 viewBox="0 0 1200 1200" style="enable-background:new 0 0 1200 1200;" xml:space="preserve">
<g id="Background">
	<rect style="fill:#F5F5F5;" width="1200" height="1200"/>
</g>
<g id="Graphic_Elements">
	<g>
		<g>
			<path style="fill:#528AC8;" d="M750.016,376.447c-4.66-26.535-8.325-53.074-11.728-79.614l-1.241-9.953l-0.61-4.976l-0.148-1.244
				c-0.051-0.406-0.091-0.871-0.169-1.141l-0.4-1.866c-1.052-4.937-2.936-9.5-5.5-13.494c-2.589-3.976-5.77-7.442-9.442-10.097
				c-3.666-2.652-7.663-4.616-11.771-5.721c-4.106-1.107-8.248-1.481-12.289-1.092l-18.571,1.701l-19.909,1.735
				c-6.636,0.572-13.273,1.128-19.909,1.64c-26.546,2.142-53.094,3.998-79.643,5.641c-13.274,0.85-26.549,1.585-39.824,2.318
				l-4.978,0.278l-2.489,0.128l-0.622,0.031l-0.305,0.016l-0.117,0.03l-0.464,0.108c-0.308,0.066-0.614,0.121-0.92,0.163
				c-0.306,0.042-0.617,0.05-0.9,0.186c-0.574,0.221-1.164,0.315-1.728,0.502c-2.255,0.739-4.231,2.026-5.994,3.478
				c-1.756,1.473-3.227,3.262-4.298,5.188c-1.06,1.936-1.769,3.953-2.098,5.989c-0.208,1.01-0.193,2.055-0.222,3.089
				c0.035,0.267,0.058,0.53,0.068,0.792l0.005,0.392l-0.004,0.196l-0.004,0.098l0.008,0.266l0.189,4.978l0.641,19.914
				c0.866,26.552,1.472,53.105,1.973,79.659c0.151,6.638,0.212,13.277,0.312,19.916l0.004,0.311l-0.01,0.532l-0.026,1.077
				l-0.067,2.155l-0.195,4.309c-0.044,1.435-0.242,2.869-0.434,4.303c-0.191,1.434-0.395,2.866-0.614,4.297
				c-0.359,2.872-1.149,5.676-1.826,8.496c-0.381,1.399-0.671,2.826-1.166,4.191c-0.463,1.375-0.939,2.747-1.429,4.114
				c-7.937,21.87-24.058,40.343-44.527,51.305c-2.591,1.308-5.194,2.609-7.858,3.756c-2.706,1.057-5.439,2.063-8.184,3.013
				c-2.79,0.804-5.609,1.535-8.431,2.22c-2.833,0.616-5.711,1.008-8.577,1.437c-1.435,0.237-2.87,0.335-4.309,0.419l-4.318,0.233
				c-3.424,0.165-4.375,0.094-6.184,0.114l-9.959,0.016l-39.835-0.195c-13.279-0.159-26.557-0.245-39.837-0.465l-36.93-0.651
				c-1.97-0.009-3.874,0.303-5.742,0.984c-1.865,0.665-3.712,1.676-5.333,3.046c-1.63,1.36-3.012,3.045-4.088,4.909
				c-1.053,1.881-1.77,3.951-2.099,6.26l-0.088,0.432l-0.051,0.217c-0.008,0.044-0.019,0.056-0.026,0.126l-0.011,0.311l-0.087,2.49
				l-0.195,4.98l-0.407,9.96l-0.834,19.921c-0.626,13.281-1.215,26.562-1.949,39.843c-0.666,13.281-1.483,26.563-2.255,39.845
				c-0.856,13.282-1.681,26.564-2.647,39.847c-0.457,6.641-0.937,13.283-1.456,19.924l-1.259,16.88
				c-0.096,3.808,0.519,7.699,1.89,11.48c1.368,3.78,3.52,7.401,6.296,10.632c2.772,3.243,6.229,6.008,10.151,8.154l1.478,0.829
				c0.51,0.233,1.037,0.425,1.558,0.65l1.576,0.677c0.521,0.267,1.087,0.341,1.633,0.531l1.662,0.512
				c0.279,0.082,0.556,0.192,0.84,0.257l0.861,0.158l1.736,0.35l0.877,0.188c0.164,0.029,0.255,0.071,0.48,0.09l0.623,0.065
				c13.284,1.369,26.569,2.847,39.855,4.405c26.571,3.169,53.143,6.607,79.72,11.049c-26.534,4.689-53.074,8.374-79.614,11.789
				c-13.27,1.682-26.541,3.284-39.812,4.775l-0.622,0.071c-0.19,0.027-0.513,0.031-0.764,0.046l-1.61,0.074l-3.238,0.122
				l-1.626,0.044c-0.542-0.002-1.082-0.054-1.625-0.08l-3.264-0.216c-1.086-0.104-2.195-0.105-3.27-0.313l-3.252-0.541
				c-1.085-0.193-2.18-0.367-3.261-0.596l-3.205-0.861c-8.565-2.337-16.759-6.366-24.061-11.762
				c-7.305-5.4-13.658-12.251-18.668-20.123c-5.023-7.868-8.496-16.856-10.311-26.201l-0.366-1.753
				c-0.12-0.585-0.166-1.175-0.249-1.764l-0.422-3.55l-0.193-1.783l-0.153-1.607l-0.213-2.489l-0.851-9.955
				c-0.581-6.637-1.123-13.273-1.641-19.91c-1.09-13.273-2.038-26.547-3.017-39.82c-0.896-13.274-1.836-26.548-2.626-39.822
				c-0.858-13.274-1.57-26.549-2.319-39.823l-1.019-19.913l-0.5-9.956l-0.242-4.978l-0.11-2.489l-0.014-0.311l0-0.496l0.006-1.027
				l0.026-2.055c0.086-10.951,2.198-22.073,6.276-32.447c4.058-10.393,10.168-19.943,17.712-28.168
				c7.561-8.216,16.64-15.111,26.758-20.143c10.11-5.03,21.232-8.194,32.487-9.279l4.225-0.305c1.346-0.086,3.077-0.18,3.649-0.187
				l4.978-0.16l9.957-0.269l19.915-0.52c13.276-0.343,26.554-0.552,39.83-0.835l39.832-0.565l9.958-0.077
				c1.511-0.016,3.881-0.005,3.77-0.098c0.218-0.027,0.435-0.041,0.654-0.041c0.22,0.007,0.443,0.028,0.641-0.059
				c0.404-0.131,0.835-0.114,1.24-0.208c0.387-0.162,0.784-0.256,1.198-0.316c0.367-0.206,0.746-0.355,1.152-0.454
				c0.369-0.193,0.714-0.43,1.118-0.551c1.475-0.779,2.853-1.855,3.991-3.14c1.15-1.281,2.009-2.761,2.642-4.292
				c0.073-0.194,0.16-0.384,0.261-0.57c0.134-0.177,0.089-0.408,0.163-0.603c0.063-0.413,0.349-0.775,0.321-1.218
				c0.024-0.212,0.062-0.421,0.115-0.629c0.053-0.207,0.142-0.412,0.104-0.641c-0.003-0.222,0.008-0.443,0.033-0.665l0.047-0.332
				l0.031-0.167l0.017-0.089l0.001-0.311c0.038-6.639,0.038-13.278,0.127-19.918c0.254-26.557,0.613-53.116,1.232-79.674
				l0.456-19.919l0.143-4.98l0.089-1.928l0.12-2.095l0.296-4.182c0.618-5.563,1.606-11.11,3.222-16.49
				c3.132-10.774,8.247-20.919,14.987-29.716c6.721-8.814,15.002-16.338,24.34-22.155c9.332-5.811,19.757-9.903,30.512-11.889
				c2.681-0.494,5.395-0.797,8.092-1.129c1.349-0.192,2.7-0.229,4.052-0.277l4.051-0.111l2.022-0.029l0.505-0.005l0.318,0.012
				l0.622,0.025l2.49,0.105l4.98,0.232c13.281,0.61,26.562,1.222,39.843,1.948c26.563,1.396,53.126,3.005,79.691,4.9
				c6.641,0.45,13.283,0.944,19.924,1.454l19.924,1.55l9.962,0.811l4.981,0.408l2.846,0.263l3.466,0.376
				c9.204,1.137,18.171,3.916,26.181,8.23c8.013,4.301,15.133,9.983,20.881,16.701c5.767,6.697,10.193,14.396,13.027,22.529
				c2.86,8.124,4.128,16.674,3.819,24.981l-0.126,3.105c-0.014,0.559-0.071,0.924-0.114,1.348l-0.137,1.246l-0.564,4.982
				l-1.149,9.964C757.848,323.298,754.429,349.871,750.016,376.447z"/>
		</g>
		<g>
			<path style="fill:#528AC8;" d="M630.47,569.762c-3.648,1.945-7.319,3.784-10.914,5.779c-3.629,1.908-7.196,3.93-10.751,5.935
				c-7.095,4.049-14.057,8.242-20.824,12.663c-6.795,4.368-13.363,9.009-19.746,13.791c-3.203,2.378-6.298,4.879-9.401,7.337
				c-3.038,2.546-6.081,5.057-8.997,7.699c-5.884,5.213-11.503,10.642-16.763,16.316c-5.219,5.67-10.118,11.405-14.453,17.52
				l-1.65,2.262c-0.544,0.757-1.032,1.554-1.55,2.327c-1.009,1.565-2.074,3.081-3.057,4.649l-2.846,4.756
				c-0.488,0.779-0.934,1.586-1.358,2.405l-1.302,2.432l-1.302,2.422c-0.416,0.817-0.794,1.658-1.194,2.481
				c-0.781,1.661-1.629,3.272-2.356,4.954l-2.157,5.039c-0.714,1.677-1.304,3.421-1.963,5.119
				c-2.487,6.874-4.714,13.824-6.344,21.019c-1.656,7.175-3.111,14.413-4.057,21.842l-0.392,2.766l-0.306,2.803l-0.619,5.613
				c-0.338,3.886-0.75,7.759-1.031,11.636c-0.242,3.88-0.599,7.742-0.738,11.617l-0.298,5.799c-0.104,1.931-0.13,3.87-0.2,5.802
				c-0.466,15.468-0.237,30.929,0.575,46.657c0.346,7.841,0.855,15.793,1.383,23.769l1.718,24.218
				c0.572,8.134,1.196,16.348,1.702,24.61l1.619,23.893l0.504,5.791l0.258,2.675l0.132,1.282l0.146,1.197
				c0.387,3.172,0.872,5.782,1.429,7.772c0.559,2,1.153,3.364,1.76,4.336c0.177,0.221,0.296,0.479,0.459,0.69
				c0.185,0.194,0.294,0.428,0.477,0.618c0.091,0.094,0.177,0.191,0.257,0.292c0.08,0.102,0.134,0.2,0.274,0.331
				c0.242,0.244,0.445,0.512,0.672,0.764c1.867,1.979,4.292,3.579,6.883,4.588c2.597,1.005,5.302,1.433,7.739,1.216l23.768-0.748
				l24.513-0.662c32.683-0.894,65.368-1.529,98.053-2.058l24.514-0.333l12.257-0.148l1.477-0.022
				c0.136-0.03,0.271-0.054,0.406-0.073c0.27-0.039,0.54-0.056,0.813-0.054c0.282,0.05,0.521-0.103,0.78-0.141
				c0.255-0.056,0.512-0.091,0.775-0.106c2.004-0.463,3.861-1.378,5.531-2.661c1.645-1.288,3.134-2.918,3.975-4.797
				c0.898-1.85,1.439-3.764,1.524-5.929c0.015-0.134,0.036-0.268,0.062-0.403l0.002-1.466l-0.007-3.065l-0.013-6.129l-0.026-12.258
				l0.152-49.032l0.422-49.033c0.047-2.207-0.014-3.435,0.201-7.584c0.088-1.75,0.196-3.5,0.325-5.244
				c0.13-1.744,0.456-3.486,0.706-5.226c0.278-1.738,0.553-3.477,0.891-5.201c0.414-1.713,0.849-3.422,1.303-5.125
				c0.827-3.43,2.08-6.726,3.333-10.017c0.318-0.82,0.627-1.644,0.966-2.455l1.124-2.384c0.759-1.585,1.536-3.161,2.331-4.726
				c0.38-0.792,0.827-1.545,1.281-2.295l1.36-2.249c0.922-1.49,1.835-2.987,2.821-4.429c1.032-1.41,2.082-2.808,3.147-4.193
				c1.069-1.381,2.116-2.779,3.317-4.046c2.359-2.57,4.665-5.19,7.313-7.461c10.269-9.397,22.64-16.494,35.974-20.555
				c3.363-0.879,6.733-1.804,10.146-2.397c1.713-0.268,3.429-0.517,5.146-0.745l2.575-0.327c0.858-0.089,1.718-0.11,2.577-0.161
				c1.719-0.085,3.44-0.152,5.158-0.198l1.288-0.031l0.644-0.013l0.411,0.007l1.532,0.035l6.13,0.138
				c16.345,0.336,32.691,0.81,49.037,1.258c16.346,0.462,32.692,1.016,49.039,1.568l12.26,0.456l6.13,0.228l3.065,0.114l0.766,0.029
				l0.376,0.013l0.152-0.003l0.61,0.004c3.27,0.185,6.517-0.238,9.685-1.45l0.308-0.091l0.278-0.15l0.568-0.286
				c0.381-0.188,0.784-0.346,1.18-0.522c0.354-0.242,0.718-0.47,1.095-0.688c0.366-0.229,0.797-0.386,1.11-0.692
				c0.654-0.567,1.483-0.971,2.077-1.626c0.327-0.297,0.668-0.585,1.024-0.866c0.331-0.301,0.587-0.664,0.906-0.981
				c2.427-2.62,4.433-5.772,5.468-9.36c0.097-0.455,0.22-0.908,0.353-1.363l0.214-0.684c0.083-0.227,0.069-0.472,0.114-0.708
				c0.064-0.476,0.143-0.953,0.237-1.433l0.073-0.361c0.023-0.147,0.06-0.167,0.066-0.484l0.079-1.532l0.632-12.261l1.344-24.522
				c1.851-32.696,3.944-65.393,6.347-98.092c1.21-16.349,2.476-32.699,3.846-49.049l0.258-3.066l0.064-0.766
				c0.021-0.25,0.048-0.54,0.052-0.691l0.062-1.104l0.158-2.231l0.044-0.563l-0.028-0.555l-0.047-1.115
				c-0.028-0.746-0.05-1.499-0.058-2.259l-0.299-2.237c-0.122-0.744-0.132-1.529-0.331-2.26l-0.531-2.23l-0.254-1.133
				c-0.101-0.372-0.251-0.726-0.372-1.092l-0.754-2.207c-0.206-0.766-0.612-1.432-0.919-2.156l-0.964-2.172l-1.193-2.059
				c-0.417-0.677-0.742-1.438-1.247-2.057l-1.404-1.971c-0.239-0.327-0.455-0.68-0.713-0.992l-0.804-0.913
				c-4.187-5.003-9.602-9.199-15.855-12.11c-0.785-0.349-1.598-0.628-2.402-0.955c-0.812-0.296-1.61-0.687-2.448-0.921l-2.532-0.7
				c-0.849-0.237-1.7-0.525-2.578-0.631l-2.635-0.462l-1.345-0.235l-1.533-0.164l-6.132-0.667
				c-16.352-1.854-32.704-3.679-49.059-5.956c16.332-2.428,32.667-4.405,49.001-6.412l6.125-0.724l1.531-0.178l1.717-0.104
				l3.487-0.181c1.171-0.1,2.334-0.012,3.507,0.043l3.531,0.196c1.181,0.077,2.336,0.322,3.513,0.483
				c1.17,0.193,2.358,0.349,3.527,0.588c9.336,2.015,18.353,6.268,26.141,12.373l1.474,1.138c0.481,0.391,0.921,0.827,1.383,1.241
				l2.738,2.545c0.948,0.826,1.714,1.812,2.569,2.731l2.496,2.835l2.243,3.051c0.72,1.04,1.532,2.034,2.138,3.149l1.932,3.302
				c0.314,0.557,0.653,1.104,0.942,1.674l0.812,1.74l1.602,3.515c0.545,1.174,0.89,2.416,1.337,3.633
				c0.416,1.225,0.847,2.454,1.233,3.696l0.895,3.795l0.429,1.912l0.211,0.959l0.133,0.966l0.496,3.889l0.231,1.956l0.157,1.606
				l0.287,3.063c1.522,16.337,2.94,32.674,4.302,49.011c2.707,32.675,5.103,65.351,7.258,98.029l1.572,24.508l0.746,12.254
				l0.093,1.532c0.021,0.193,0.015,0.683,0.02,1.047l0.003,1.169c0.001,1.56-0.014,3.124-0.044,4.689
				c-0.028,0.782-0.004,1.566-0.086,2.348l-0.234,2.347c-0.166,1.566-0.341,3.134-0.543,4.7
				c-3.761,25.093-19.568,48.286-42.232,61.057c-11.291,6.405-24.2,10.319-37.253,11.143l-2.449,0.172l-1.003,0.057l-0.766,0.036
				l-3.064,0.142l-6.128,0.285l-12.255,0.57c-16.341,0.703-32.681,1.409-49.022,2.023c-16.341,0.601-32.682,1.226-49.023,1.714
				l-6.128,0.196l-1.532,0.049l-0.355,0.014l-0.121,0.029l-0.242,0.053c-0.321,0.066-0.641,0.112-0.962,0.139
				c-0.159,0.022-0.324,0.004-0.478,0.044c-0.151,0.055-0.302,0.104-0.452,0.149c-0.301,0.089-0.603,0.158-0.908,0.208
				c-0.076,0.014-0.154,0.019-0.229,0.038l-0.212,0.1c-0.142,0.064-0.283,0.124-0.426,0.178c-0.286,0.106-0.577,0.188-0.874,0.253
				c-2.233,0.946-4.247,2.38-5.892,4.157c-0.488,0.367-0.738,0.96-1.154,1.386c-0.231,0.198-0.335,0.496-0.491,0.749
				c-0.151,0.257-0.317,0.5-0.501,0.732c-0.135,0.263-0.225,0.55-0.371,0.801c-0.069,0.128-0.141,0.254-0.219,0.377
				c-0.082,0.121-0.166,0.241-0.19,0.39c-0.083,0.28-0.184,0.548-0.304,0.808c-0.06,0.13-0.124,0.257-0.194,0.383
				c-0.038,0.139-0.054,0.284-0.089,0.422c-0.12,0.556-0.397,1.06-0.405,1.642c-0.045,0.278-0.11,0.55-0.195,0.818
				c-0.011,0.287,0.001,0.577-0.031,0.857c-0.004,0.286-0.122,0.551-0.09,0.847c0.035,0.296,0.049,0.588,0.044,0.878
				c-0.064-0.07,0.01,2.791,0.053,4.669l0.878,49.027l0.608,49.029l0.088,12.257l0.044,6.129l0.022,3.064l0.007,1.598l-0.078,2.659
				c-0.319,14.167-3.884,28.47-10.396,41.183c-6.465,12.76-15.934,23.825-27.26,32.431c-11.33,8.586-24.653,14.753-38.683,17.522
				c-1.755,0.303-3.516,0.585-5.279,0.847c-1.764,0.241-3.527,0.558-5.294,0.625c-1.767,0.115-3.537,0.21-5.307,0.284l-2.653,0.095
				l-1.588,0l-12.258-0.034l-24.516-0.105c-32.689-0.225-65.377-0.556-98.068-1.147l-24.518-0.434l-25.261-0.587
				c-6.946-0.214-13.827-1.205-20.453-2.962c-6.63-1.753-13.001-4.272-19.013-7.418c-12.014-6.302-22.617-15.216-30.796-26.141
				c-1.015-1.368-1.977-2.781-2.942-4.185c-0.962-1.397-1.891-3.007-2.799-4.521c-0.908-1.538-1.698-3.144-2.518-4.728
				c-0.794-1.593-1.481-3.216-2.192-4.834c-2.718-6.499-4.427-13.028-5.487-19.032c-1.062-6.023-1.506-11.547-1.734-16.522
				l-0.08-1.859l-0.05-1.777c-0.037-1.208-0.057-2.323-0.066-3.445l-0.023-6.456l0.383-25.122l0.532-24.407
				c0.313-16.376,0.796-33.08,1.768-50.06c0.496-8.473,1.208-17.033,2.027-25.584c0.48-4.289,0.878-8.562,1.481-12.846l0.85-6.417
				c0.286-2.138,0.641-4.273,0.96-6.407c1.257-8.542,2.875-17.03,4.622-25.455c0.869-4.214,1.869-8.391,2.8-12.578
				c0.495-2.117,1.069-4.3,1.612-6.439l0.826-3.221l0.925-3.22c2.382-8.574,5.284-17.115,8.654-25.485
				c3.324-8.383,7.278-16.603,11.722-24.521c4.412-7.937,9.451-15.551,14.988-22.708l2.084-2.676
				c0.685-0.897,1.39-1.778,2.138-2.626l4.398-5.133c1.501-1.675,3.062-3.293,4.601-4.921c0.779-0.806,1.53-1.635,2.33-2.416
				l2.418-2.322c1.629-1.525,3.18-3.126,4.868-4.571l5.009-4.371c1.665-1.454,3.445-2.763,5.158-4.143
				c1.725-1.37,3.448-2.728,5.217-3.974c6.956-5.185,14.231-9.837,21.608-14.17c7.39-4.319,14.929-8.272,22.622-11.789
				c7.675-3.548,15.441-6.785,23.323-9.611C598.27,577.444,614.277,572.967,630.47,569.762z"/>
		</g>
		<g>
			<path style="fill:#7CC7B9;" d="M418.655,672.847c-0.953-2.67-1.865-5.363-2.708-8.082c-0.855-2.717-1.586-5.465-2.355-8.226
				c-0.369-1.382-0.708-2.771-1.037-4.165c-0.341-1.393-0.66-2.792-0.945-4.198l-0.887-4.229l-0.779-4.263
				c-1.994-11.404-2.845-23.149-2.559-35.132c0.267-5.979,0.66-12.04,1.651-18.092c0.398-3.042,1.026-6.066,1.651-9.106
				c0.28-1.528,0.72-3.024,1.089-4.542c0.399-1.51,0.748-3.042,1.2-4.547c3.537-12.064,8.845-23.989,16.011-35.023l2.819-4.047
				c0.951-1.347,1.883-2.719,2.936-3.985c2.067-2.565,4.077-5.234,6.352-7.632l3.369-3.674c1.15-1.198,2.364-2.314,3.553-3.475
				c1.202-1.141,2.389-2.32,3.623-3.429l3.781-3.22c10.186-8.501,21.443-15.546,33.117-21.189c1.459-0.705,2.918-1.46,4.389-2.12
				l4.433-1.907l4.462-1.873c1.484-0.601,2.937-1.093,4.411-1.644c2.943-1.05,5.88-2.199,8.856-3.145l4.463-1.474
				c1.48-0.505,3.035-0.889,4.553-1.338l4.588-1.292l4.558-1.14c3.057-0.794,6.063-1.434,9.085-2.099
				c6.041-1.298,11.997-2.32,17.911-3.302c23.558-3.735,45.899-5.52,66.081-8.514c2.487-0.393,4.996-0.772,7.416-1.195l7.01-1.385
				c1.166-0.237,2.34-0.392,3.497-0.691l3.476-0.832c2.313-0.578,4.638-1.037,6.934-1.692c4.585-1.345,9.18-2.544,13.711-4.112
				l3.408-1.104l1.702-0.556l1.686-0.634l6.74-2.514c35.824-13.983,69.528-35.735,101.273-61.676l0.494-0.404
				c17.332-14.163,42.863-11.594,57.025,5.738c5.087,6.226,8.007,13.474,8.867,20.909l0.309,2.627l0.245,2.286l0.434,4.432
				c0.27,2.923,0.51,5.811,0.725,8.688c0.445,5.75,0.74,11.465,0.956,17.174c0.433,11.415,0.59,22.808,0.294,34.226
				c-0.262,11.416-0.836,22.851-1.894,34.306c-0.503,5.726-1.107,11.462-1.82,17.199c-0.719,5.733-1.596,11.476-2.523,17.217
				c-3.797,22.962-9.572,45.995-18.259,68.657c-4.483,11.29-9.514,22.533-15.783,33.394c-6.14,10.892-13.425,21.438-21.838,31.265
				c-4.194,4.928-8.781,9.599-13.557,14.071c-2.476,2.176-4.868,4.399-7.47,6.441c-1.291,1.027-2.537,2.09-3.867,3.073l-3.999,2.92
				l-1.009,0.726l-1.101,0.744l-2.205,1.475c-1.465,0.969-2.989,2.022-4.279,2.67l-8.057,4.42c-2.703,1.526-5.339,2.709-7.989,3.994
				c-2.654,1.253-5.275,2.562-7.945,3.749c-21.392,9.43-43.535,16.263-65.948,20.536c-22.435,4.181-45.157,5.701-67.489,4.536
				c-22.321-1.23-44.298-5.104-64.903-12.27c21.742-1.72,42.697-5,62.877-10.096c20.17-5.051,39.556-11.761,57.964-19.994
				c18.372-8.322,35.776-18.098,51.835-29.155c2.007-1.379,3.94-2.858,5.907-4.272c1.945-1.428,3.976-2.838,5.701-4.297l5.387-4.268
				c1.004-0.726,1.548-1.365,2.207-2.01l0.973-0.957l0.487-0.473l0.528-0.555c2.878-2.929,5.594-6.038,8.178-9.263
				c2.523-3.312,4.93-6.717,7.193-10.289c8.949-14.357,15.605-31.036,20.385-48.874c4.821-17.851,7.845-36.785,9.724-56.114
				c0.446-4.842,0.86-9.694,1.138-14.587c0.315-4.885,0.597-9.785,0.761-14.71c0.187-4.921,0.272-9.859,0.33-14.808
				c0.066-4.948,0.079-9.904,0-14.869c-0.181-9.925-0.471-19.879-1.084-29.783c-0.308-4.949-0.679-9.887-1.065-14.776
				c-0.201-2.443-0.423-4.871-0.661-7.26l-0.372-3.531l-0.362-3.039l66.386,26.243c-18.492,15.154-38.164,29.367-59.459,41.684
				c-5.238,3.182-10.772,5.983-16.199,8.911c-2.747,1.421-5.558,2.758-8.335,4.135l-4.178,2.046l-4.261,1.926l-8.568,3.751
				l-8.737,3.46c-1.464,0.561-2.896,1.175-4.385,1.69l-4.452,1.566c-2.977,1.025-5.911,2.124-8.939,3.026l-9.074,2.704l-2.268,0.67
				l-2.3,0.592l-4.605,1.164c-3.08,0.742-6.11,1.619-9.243,2.186l-9.334,1.85c-3.112,0.601-6.277,0.999-9.409,1.498l-4.708,0.705
				c-1.564,0.253-3.159,0.36-4.736,0.545l-9.484,0.918c-3.092,0.235-6.108,0.398-9.143,0.577
				c-24.042,1.159-46.154,0.313-66.818,0.757c-2.545,0.082-5.138,0.12-7.656,0.232c-2.493,0.133-5.065,0.205-7.506,0.382
				c-2.467,0.155-4.961,0.283-7.358,0.529l-3.64,0.321l-3.559,0.429c-2.368,0.249-4.776,0.638-7.192,1.004
				c-2.429,0.327-4.794,0.838-7.206,1.248c-1.19,0.225-2.432,0.411-3.588,0.666l-3.425,0.795l-3.455,0.761
				c-1.142,0.271-2.235,0.618-3.362,0.92c-17.994,4.889-34.305,13.042-47.821,25.613l-2.458,2.439
				c-0.81,0.828-1.691,1.608-2.432,2.505c-1.533,1.753-3.162,3.464-4.589,5.354l-2.231,2.793l-2.082,2.936l-1.054,1.476
				c-0.341,0.5-0.648,1.022-0.976,1.534l-1.976,3.089c-5.094,8.394-9.26,17.73-12.666,27.626
				C423.47,628.306,420.176,650.257,418.655,672.847z"/>
		</g>
	</g>
</g>
</svg>
